HIERARCHY
ROOT Torso
{
    OFFSET 0 0 0
    CHANNELS 6 Xposition Yposition Zposition Zrotation Yrotation Xrotation
    JOINT LHip1 
    {   
        OFFSET 0 -0.06 0.01
        CHANNELS 3 Zrotation Yrotation Xrotation
        JOINT LHip2
        {
            OFFSET -0.055 -0.055 0
            CHANNELS 3 Zrotation Yrotation Xrotation
            JOINT LHip3
            {
                OFFSET 0 0 -0.01
                CHANNELS 3 Zrotation Yrotation Xrotation
                JOINT LThigh
                {
                    OFFSET 0.01 0 0
                    CHANNELS 3 Zrotation Yrotation Xrotation
                    JOINT LLeg
                    {
                        OFFSET -0.01 -0.120 -0.014
                        CHANNELS 3 Zrotation Yrotation Xrotation
                        JOINT LFoot
                        {
                            OFFSET 0 -0.1 0.01
                            CHANNELS 3 Zrotation Yrotation Xrotation
                            End Site
                            {
                                OFFSET 0 -0.035 -0.090
                            }
                        }
                    }
                }
            }
        }
    }
    JOINT RHip1 
    {   
        OFFSET 0 -0.06 0.01
        CHANNELS 3 Zrotation Yrotation Xrotation
        JOINT RHip2
        {
            OFFSET 0.055 -0.055 0
            CHANNELS 3 Zrotation Yrotation Xrotation
            JOINT RHip3
            {
                OFFSET 0 0 -0.01
                CHANNELS 3 Zrotation Yrotation Xrotation
                JOINT RThigh
                {
                    OFFSET 0.01 0 0
                    CHANNELS 3 Zrotation Yrotation Xrotation
                    JOINT RLeg
                    {
                        OFFSET -0.01 -0.120 -0.014
                        CHANNELS 3 Zrotation Yrotation Xrotation
                        JOINT RFoot
                        {
                            OFFSET 0 -0.1 0.01
                            CHANNELS 3 Zrotation Yrotation Xrotation
                            End Site
                            {
                                OFFSET 0 -0.035 -0.090
                            }
                        }
                    }
                }
            }
        }
    }
    JOINT Neck
    {
        OFFSET 0 0.04 0
        CHANNELS 3 Zrotation Yrotation Xrotation
        JOINT Head
        {
            OFFSET 0 0.1 0
            CHANNELS 3 Zrotation Yrotation Xrotation
            End Site 
            {
                OFFSET 0 0.07 0
            }
        }
    }
    JOINT LUpperarm
    {
        OFFSET -0.098 0.075 0
        CHANNELS 3 Zrotation Yrotation Xrotation
        JOINT LLowerarm
        {
            OFFSET 0 0.009 -0.09
            CHANNELS 3 Zrotation Yrotation Xrotation
            End Site
            {
                OFFSET 0 0 -0.105
            }
        }
    }
    JOINT RUpperarm
    {
        OFFSET 0.098 0.075 0
        CHANNELS 3 Zrotation Yrotation Xrotation
        JOINT RLowerarm
        {
            OFFSET 0 0.009 -0.09
            CHANNELS 3 Zrotation Yrotation Xrotation
            End Site
            {
                OFFSET 0 0 -0.105
            }
        }
    }
}
MOTION
Frames: 24
Frame Time: 0.0083333
0 0 0 0.0 0.0 0.0 0.0 0.0 0.0 0.0 -1.0000355357033612 0.0 0.0 0.0 -7.06403088171008 0.0 0.0 0.0 0.0 0.0 0.0 0.0 0.0 0.0 0.0 0.0 0.0 0.0 -9.95650998621133 0.0 0.0 0.0 -0.0 0.0 0.0 0.0 0.0 0.0 0.0 0.0 0.0 0.0 0.0 0.0 0.0 0.0 0.0 0.0 0.0 0.0 -90.0 0.0 0.0 0.0 0.0 0.0 -90.0 0.0 0.0 0.0 
0 0 0 0.0 0.0 0.0 0.0 0.0 0.0 0.0 -1.9066736616317712 0.0 0.0 0.0 -9.209180997562049 0.0 0.0 0.0 0.0 0.0 -19.5732 0.0 19.9657 -33.5278 0.0 0.0 0.0 0.0 -8.126178330708967 0.0 0.0 0.0 -3.2253797440551235 0.0 0.0 0.0 0.0 0.0 -17.8748 0.0 -21.2147 -42.9098 0.0 0.0 0.0 0.0 0.0 0.0 0.0 0.0 -90.0 0.0 0.0 0.0 0.0 0.0 -90.0 0.0 0.0 0.0 
0 0 0 0.0 0.0 0.0 0.0 0.0 0.0 0.0 -1.991080626627138 0.0 0.0 0.0 -9.172158220150186 0.0 0.0 0.0 0.0 0.0 -19.7169 0.0 19.836 -33.7007 0.0 0.0 0.0 0.0 -8.022874835432248 0.0 0.0 0.0 -3.238279007906066 0.0 0.0 0.0 0.0 0.0 -17.643 0.0 -21.3244 -42.9127 0.0 0.0 0.0 0.0 0.0 0.0 0.0 0.0 -90.0 0.0 0.0 0.0 0.0 0.0 -90.0 0.0 0.0 0.0 
0 0 0 0.0 0.0 0.0 0.0 0.0 0.0 0.0 -1.9786182206156298 0.0 0.0 0.0 -9.173860465067706 0.0 0.0 0.0 0.0 0.0 -19.688 0.0 19.8328 -33.7379 0.0 0.0 0.0 0.0 -8.051061737155237 0.0 0.0 0.0 -3.250743242164248 0.0 0.0 0.0 0.0 0.0 -17.6784 0.0 -21.3833 -42.926 0.0 0.0 0.0 0.0 0.0 0.0 0.0 0.0 -90.0 0.0 0.0 0.0 0.0 0.0 -90.0 0.0 0.0 0.0 
0 0 0 0.0 0.0 0.0 0.0 0.0 0.0 0.0 -1.9618881578291791 0.0 0.0 0.0 -9.19264233210138 0.0 0.0 0.0 0.0 0.0 -19.6824 0.0 19.8216 -33.6809 0.0 0.0 0.0 0.0 -8.042427285862345 0.0 0.0 0.0 -3.210907029760777 0.0 0.0 0.0 0.0 0.0 -17.674 0.0 -21.309 -42.8734 0.0 0.0 0.0 0.0 0.0 0.0 0.0 0.0 -90.0 0.0 0.0 0.0 0.0 0.0 -90.0 0.0 0.0 0.0 
0 0 0 0.0 0.0 0.0 0.0 0.0 0.0 0.0 -1.9346369462099346 0.0 0.0 0.0 -9.208313880124997 0.0 0.0 0.0 0.0 0.0 -19.6289 0.0 19.8188 -33.6547 0.0 0.0 0.0 0.0 -8.072265802843873 0.0 0.0 0.0 -3.2040941602032498 0.0 0.0 0.0 0.0 0.0 -17.7434 0.0 -21.2784 -42.865 0.0 0.0 0.0 0.0 0.0 0.0 0.0 0.0 -90.0 0.0 0.0 0.0 0.0 0.0 -90.0 0.0 0.0 0.0 
0 0 0 0.0 0.0 0.0 0.0 0.0 0.0 0.0 -1.9005829341637792 0.0 0.0 0.0 -9.228197920811164 0.0 0.0 0.0 0.0 0.0 -19.5564 0.0 19.8395 -33.6103 0.0 0.0 0.0 0.0 -8.113678954129512 0.0 0.0 0.0 -3.1962117706377633 0.0 0.0 0.0 0.0 0.0 -17.8354 0.0 -21.2468 -42.8484 0.0 0.0 0.0 0.0 0.0 0.0 0.0 0.0 -90.0 0.0 0.0 0.0 0.0 0.0 -90.0 0.0 0.0 0.0 
0 0 0 0.0 0.0 0.0 0.0 0.0 0.0 0.0 -1.8707618762624492 0.0 0.0 0.0 -9.246572125292658 0.0 0.0 0.0 0.0 0.0 -19.4935 0.0 19.8609 -33.5747 0.0 0.0 0.0 0.0 -8.145187205172931 0.0 0.0 0.0 -3.1875562632264773 0.0 0.0 0.0 0.0 0.0 -17.9066 0.0 -21.2304 -42.8249 0.0 0.0 0.0 0.0 0.0 0.0 0.0 0.0 -90.0 0.0 0.0 0.0 0.0 0.0 -90.0 0.0 0.0 0.0 
0 0 0 0.0 0.0 0.0 0.0 0.0 0.0 0.0 -1.8355716984611519 0.0 0.0 0.0 -9.266498238913366 0.0 0.0 0.0 0.0 0.0 -19.4187 0.0 19.8749 -33.5469 0.0 0.0 0.0 0.0 -8.182893884382636 0.0 0.0 0.0 -3.1842028201529615 0.0 0.0 0.0 0.0 0.0 -17.9894 0.0 -21.2147 -42.8228 0.0 0.0 0.0 0.0 0.0 0.0 0.0 0.0 -90.0 0.0 0.0 0.0 0.0 0.0 -90.0 0.0 0.0 0.0 
0 0 0 0.0 0.0 0.0 0.0 0.0 0.0 0.0 -1.7944708223492967 0.0 0.0 0.0 -9.287044869259107 0.0 0.0 0.0 0.0 0.0 -19.34 0.0 19.877 -33.528 0.0 0.0 0.0 0.0 -8.219103285472883 0.0 0.0 0.0 -3.1829753054928265 0.0 0.0 0.0 0.0 0.0 -18.074 0.0 -21.1881 -42.8455 0.0 0.0 0.0 0.0 0.0 0.0 0.0 0.0 -90.0 0.0 0.0 0.0 0.0 0.0 -90.0 0.0 0.0 0.0 
0 0 0 0.0 0.0 0.0 0.0 0.0 0.0 0.0 -1.754732102917984 0.0 0.0 0.0 -9.305195704088447 0.0 0.0 0.0 0.0 0.0 -19.2685 0.0 19.8707 -33.5125 0.0 0.0 0.0 0.0 -8.250440965032894 0.0 0.0 0.0 -3.1819767709930207 0.0 0.0 0.0 0.0 0.0 -18.1489 0.0 -21.1485 -42.8845 0.0 0.0 0.0 0.0 0.0 0.0 0.0 0.0 -90.0 0.0 0.0 0.0 0.0 0.0 -90.0 0.0 0.0 0.0 
0 0 0 0.0 0.0 0.0 0.0 0.0 0.0 0.0 -1.7215280612298614 0.0 0.0 0.0 -9.318053701856245 0.0 0.0 0.0 0.0 0.0 -19.2144 0.0 19.8553 -33.5021 0.0 0.0 0.0 0.0 -8.271992546257394 0.0 0.0 0.0 -3.1831711124914968 0.0 0.0 0.0 0.0 0.0 -18.2037 0.0 -21.111 -42.9259 0.0 0.0 0.0 0.0 0.0 0.0 0.0 0.0 -90.0 0.0 0.0 0.0 0.0 0.0 -90.0 0.0 0.0 0.0 
0 0 0 0.0 0.0 0.0 0.0 0.0 0.0 0.0 -1.7017227946713405 0.0 0.0 0.0 -9.323723543848153 0.0 0.0 0.0 0.0 0.0 -19.1824 0.0 19.8312 -33.4957 0.0 0.0 0.0 0.0 -8.285253663158812 0.0 0.0 0.0 -3.1854581308825853 0.0 0.0 0.0 0.0 0.0 -18.2338 0.0 -21.0856 -42.9507 0.0 0.0 0.0 0.0 0.0 0.0 0.0 0.0 -90.0 0.0 0.0 0.0 0.0 0.0 -90.0 0.0 0.0 0.0 
0 0 0 0.0 0.0 0.0 0.0 0.0 0.0 0.0 -1.6925265369251576 0.0 0.0 0.0 -9.323763088177884 0.0 0.0 0.0 0.0 0.0 -19.1685 0.0 19.8061 -33.4892 0.0 0.0 0.0 0.0 -8.290390420197497 0.0 0.0 0.0 -3.187533889289066 0.0 0.0 0.0 0.0 0.0 -18.2445 0.0 -21.0747 -42.9485 0.0 0.0 0.0 0.0 0.0 0.0 0.0 0.0 -90.0 0.0 0.0 0.0 0.0 0.0 -90.0 0.0 0.0 0.0 
0 0 0 0.0 0.0 0.0 0.0 0.0 0.0 0.0 -1.6905031086148625 0.0 0.0 0.0 -9.322373140526256 0.0 0.0 0.0 0.0 0.0 -19.1621 0.0 19.7917 -33.4847 0.0 0.0 0.0 0.0 -8.294896387385734 0.0 0.0 0.0 -3.1868980509877387 0.0 0.0 0.0 0.0 0.0 -18.2481 0.0 -21.07 -42.9313 0.0 0.0 0.0 0.0 0.0 0.0 0.0 0.0 -90.0 0.0 0.0 0.0 0.0 0.0 -90.0 0.0 0.0 0.0 
0 0 0 0.0 0.0 0.0 0.0 0.0 0.0 0.0 -1.6867616783202095 0.0 0.0 0.0 -9.323134429893296 0.0 0.0 0.0 0.0 0.0 -19.1537 0.0 19.7882 -33.4872 0.0 0.0 0.0 0.0 -8.301066832179629 0.0 0.0 0.0 -3.181385924413916 0.0 0.0 0.0 0.0 0.0 -18.256 0.0 -21.0648 -42.9086 0.0 0.0 0.0 0.0 0.0 0.0 0.0 0.0 -90.0 0.0 0.0 0.0 0.0 0.0 -90.0 0.0 0.0 0.0 
0 0 0 0.0 0.0 0.0 0.0 0.0 0.0 0.0 -1.6807152226825508 0.0 0.0 0.0 -9.326279394169408 0.0 0.0 0.0 0.0 0.0 -19.1401 0.0 19.7792 -33.5051 0.0 0.0 0.0 0.0 -8.313805456287795 0.0 0.0 0.0 -3.1721423083936204 0.0 0.0 0.0 0.0 0.0 -18.2715 0.0 -21.0639 -42.8821 0.0 0.0 0.0 0.0 0.0 0.0 0.0 0.0 -90.0 0.0 0.0 0.0 0.0 0.0 -90.0 0.0 0.0 0.0 
0 0 0 0.0 0.0 0.0 0.0 0.0 0.0 0.0 -1.6712872373410903 0.0 0.0 0.0 -9.328114592571154 0.0 0.0 0.0 0.0 0.0 -19.1275 0.0 19.7728 -33.5319 0.0 0.0 0.0 0.0 -8.325914834160983 0.0 0.0 0.0 -3.1621164146001246 0.0 0.0 0.0 0.0 0.0 -18.2883 0.0 -21.0681 -42.8591 0.0 0.0 0.0 0.0 0.0 0.0 0.0 0.0 -90.0 0.0 0.0 0.0 0.0 0.0 -90.0 0.0 0.0 0.0 
0 0 0 0.0 0.0 0.0 0.0 0.0 0.0 0.0 -1.6675142132330336 0.0 0.0 0.0 -9.32430645834835 0.0 0.0 0.0 0.0 0.0 -19.1262 0.0 19.7807 -33.5554 0.0 0.0 0.0 0.0 -8.334093288040805 0.0 0.0 0.0 -3.1556888661577145 0.0 0.0 0.0 0.0 0.0 -18.2947 0.0 -21.0844 -42.8376 0.0 0.0 0.0 0.0 0.0 0.0 0.0 0.0 -90.0 0.0 0.0 0.0 0.0 0.0 -90.0 0.0 0.0 0.0 
0 0 0 0.0 0.0 0.0 0.0 0.0 0.0 0.0 -1.6742359134989613 0.0 0.0 0.0 -9.314186043936827 0.0 0.0 0.0 0.0 0.0 -19.1422 0.0 19.7864 -33.5826 0.0 0.0 0.0 0.0 -8.336174143819832 0.0 0.0 0.0 -3.157417821016583 0.0 0.0 0.0 0.0 0.0 -18.2835 0.0 -21.122 -42.8192 0.0 0.0 0.0 0.0 0.0 0.0 0.0 0.0 -90.0 0.0 0.0 0.0 0.0 0.0 -90.0 0.0 0.0 0.0 
0 0 0 0.0 0.0 0.0 0.0 0.0 0.0 0.0 -1.6894223206471821 0.0 0.0 0.0 -9.300594873102678 0.0 0.0 0.0 0.0 0.0 -19.1724 0.0 19.7788 -33.6146 0.0 0.0 0.0 0.0 -8.330509147644847 0.0 0.0 0.0 -3.1666263968199027 0.0 0.0 0.0 0.0 0.0 -18.2572 0.0 -21.1655 -42.8127 0.0 0.0 0.0 0.0 0.0 0.0 0.0 0.0 -90.0 0.0 0.0 0.0 0.0 0.0 -90.0 0.0 0.0 0.0 
0 0 0 0.0 0.0 0.0 0.0 0.0 0.0 0.0 -1.710868729424888 0.0 0.0 0.0 -9.288925195534333 0.0 0.0 0.0 0.0 0.0 -19.2058 0.0 19.7613 -33.6385 0.0 0.0 0.0 0.0 -8.322686574425802 0.0 0.0 0.0 -3.1777239359648 0.0 0.0 0.0 0.0 0.0 -18.2268 0.0 -21.1952 -42.8168 0.0 0.0 0.0 0.0 0.0 0.0 0.0 0.0 -90.0 0.0 0.0 0.0 0.0 0.0 -90.0 0.0 0.0 0.0 
0 0 0 0.0 0.0 0.0 0.0 0.0 0.0 0.0 -1.7282166516207127 0.0 0.0 0.0 -9.283050630192236 0.0 0.0 0.0 0.0 0.0 -19.2307 0.0 19.7407 -33.6531 0.0 0.0 0.0 0.0 -8.315276502674223 0.0 0.0 0.0 -3.1863012531088066 0.0 0.0 0.0 0.0 0.0 -18.2052 0.0 -21.2049 -42.8239 0.0 0.0 0.0 0.0 0.0 0.0 0.0 0.0 -90.0 0.0 0.0 0.0 0.0 0.0 -90.0 0.0 0.0 0.0 
0 0 0 0.0 0.0 0.0 0.0 0.0 0.0 0.0 -1.7411123455123771 0.0 0.0 0.0 -9.282831006094225 0.0 0.0 0.0 0.0 0.0 -19.2435 0.0 19.7265 -33.6595 0.0 0.0 0.0 0.0 -8.313274769231825 0.0 0.0 0.0 -3.1898163648170397 0.0 0.0 0.0 0.0 0.0 -18.1951 0.0 -21.193 -42.8232 0.0 0.0 0.0 0.0 0.0 0.0 0.0 0.0 -90.0 0.0 0.0 0.0 0.0 0.0 -90.0 0.0 0.0 0.0 
